<svg width="106" height="96" viewBox="0 0 106 96" fill="none" xmlns="http://www.w3.org/2000/svg">
<path d="M1.06586 27.8081C2.56168 22.0596 3.62213 16.6528 6.95819 11.9225C9.81081 7.92358 14.2632 6.8909 18.4272 8.19588C21.0901 8.92007 23.6568 10.4235 25.7881 12.2687C30.0508 15.9591 34.3136 19.6496 37.6575 24.4132C38.3358 25.288 39.4015 26.2106 40.0799 27.0854C41.1456 28.0081 43.082 28.247 44.4362 26.832C47.5799 23.6601 50.6756 20.8778 53.8193 17.7059C59.6233 12.0935 66.7841 8.23072 73.9449 4.36795C78.1543 2.11865 83.4294 0.791961 88.1729 0.586301C92.1419 0.285047 95.5793 1.10482 98.9206 2.70382C100.809 3.33241 102.166 5.08204 102.748 6.73607C103.669 8.8275 104.204 10.8711 104.738 12.9148C105.272 14.9584 105.08 16.5169 104.452 18.4171C101.602 25.5807 98.0734 31.8695 91.591 36.6071C89.8495 37.9743 88.1081 39.3416 87.0931 41.194C84.3873 47.1888 79.5502 51.3383 75.8269 56.0209C74.4246 57.8255 72.2478 59.5346 71.1847 61.7767C70.6532 62.8977 69.7344 63.9709 68.8637 64.6545C64.0265 68.8041 60.3032 73.4867 56.1445 78.511C55.661 79.2424 54.7903 79.9261 54.3069 80.6575C50.9201 82.6128 48.9382 85.9281 47.3436 89.2911C46.8602 90.0226 46.3767 90.754 45.8452 91.875C43.9114 94.8007 40.9119 96.8038 36.0696 94.624C33.0675 93.4624 30.5008 91.959 28.0303 89.6764C24.5421 86.0815 21.0059 82.8763 17.5177 79.2815C14.3688 76.124 11.316 72.1874 9.90851 67.6627C9.66548 66.4461 9.03516 65.1817 8.35677 64.3069C2.58779 53.7063 1.22316 42.4626 1.11655 30.5832C0.873518 29.3666 0.969691 28.5873 1.06586 27.8081ZM13.5603 34.8877C12.8871 40.3423 14.1022 46.4254 14.9782 52.0711C16.5352 61.7563 21.0435 69.828 27.6325 76.9699C28.6501 78.2821 30.1512 78.8629 31.2168 79.7855C32.2825 80.7081 34.267 80.5575 35.2339 79.0947C40.3595 72.6075 45.437 66.5099 50.9018 60.4601C56.7539 54.4581 62.2668 48.0187 68.1189 42.0167C72.6649 37.0401 77.259 31.6739 81.805 26.6974C84.078 24.2091 86.0117 21.2834 87.9455 18.3577C88.4771 17.2367 89.0086 16.1156 89.1529 14.9468C89.7325 13.4362 87.9884 11.6387 86.8266 11.4954C84.8902 11.2564 83.2449 11.8444 81.5515 12.8221C71.9708 17.1773 64.1343 23.3299 56.5407 30.6991C54.7031 32.8456 52.8654 34.9921 51.0278 37.1385C50.109 38.2118 49.1902 39.285 49.0459 40.4538C48.6132 43.9603 46.3883 46.059 43.8242 47.7203C42.5181 48.7457 40.9689 48.5545 39.9513 47.2423C38.5465 45.8823 37.9642 44.2283 37.8174 42.2324C36.9895 36.1971 34.081 31.0916 29.9144 26.622C28.5096 25.2619 27.492 23.9497 26.1352 22.2001C25.4087 21.7149 24.7303 20.8401 24.0038 20.3549C22.5508 19.3845 19.7437 19.8291 18.7768 21.292C15.8761 25.6805 14.1853 29.8228 13.5603 34.8877Z" fill="#F43F5E"/>
</svg>
