<svg width="11" height="43" viewBox="0 0 11 43" fill="none" xmlns="http://www.w3.org/2000/svg">
<path d="M2.93281 4.856C2.8033 4.81779 2.63076 4.81852 2.54449 4.81888C1.89773 4.93788 1.33724 5.05651 0.690478 5.1755C0.517933 5.17623 0.3452 5.09945 0.215509 4.98373C0.0424009 4.75192 -0.00139206 4.48081 0.0410864 4.20934C0.0405226 3.97681 0.169461 3.78249 0.38486 3.66531C0.686531 3.54777 0.988013 3.35272 1.33291 3.27376C1.89322 3.07761 2.49656 2.84253 3.01344 2.53031C3.22884 2.41313 3.44424 2.29595 3.65983 2.25629C4.34982 2.17587 4.90974 1.8247 5.5129 1.51211C5.7283 1.39494 5.94369 1.27776 6.15909 1.16058C6.71902 0.80942 7.28026 1.00083 7.84131 1.11473C7.92758 1.11437 7.971 1.23046 8.05746 1.3076C8.10069 1.34618 8.14392 1.38475 8.10088 1.42369C8.1443 1.53977 8.23094 1.69443 8.27436 1.81051C8.44916 2.73992 8.83936 3.55214 9.22975 4.44188C9.40323 4.82871 9.49063 5.29341 9.5348 5.71954C9.53593 6.18461 9.27805 6.57325 8.7608 6.73046C8.4159 6.80943 8.11403 6.84946 7.76895 6.85091C7.46709 6.89094 7.20789 6.73701 6.99174 6.54414C6.86186 6.35091 6.73198 6.15768 6.55906 6.00338C6.38614 5.84909 6.17018 5.73373 5.99726 5.57944C5.82453 5.50266 5.5659 5.58126 5.48 5.73664C5.43734 5.9306 5.35163 6.1635 5.35219 6.39603C5.2678 7.1715 5.18341 7.94698 5.05597 8.76139C4.97101 9.30433 4.9291 9.80834 4.93041 10.3509C4.89 11.475 4.76313 12.5219 4.76576 13.6071C4.72535 14.7312 4.68494 15.8553 4.81707 16.9786C4.86068 17.1722 4.8182 17.4437 4.81857 17.5987C4.81895 17.7538 4.77629 17.9477 4.81989 18.1413C4.86538 19.11 4.99713 20.0784 5.08566 21.0081C5.13077 21.8218 5.21911 22.6741 5.26422 23.4877C5.3971 24.9212 5.61626 26.3542 5.92169 27.7869C5.96511 27.903 6.00853 28.019 6.0089 28.1741C6.14198 29.685 6.53387 31.1948 6.92576 32.7046C7.05657 33.2854 7.23062 33.9048 7.44771 34.4852C7.57778 34.756 7.66481 35.0656 7.66556 35.3757C7.83998 36.1501 8.10068 36.9241 8.44746 37.6202C8.96753 38.6257 9.44438 39.5926 9.96446 40.598C10.0079 40.7141 10.0945 40.8688 10.1379 40.9849C10.1815 41.1785 10.1819 41.3335 10.096 41.4889C9.92423 41.7996 9.57971 42.0336 9.235 42.1901C8.93332 42.3076 8.50177 42.2319 8.37171 41.9612C7.98207 41.3815 7.63567 40.8404 7.24603 40.2607C6.50981 39.0624 6.07525 37.7465 5.68392 36.4692C5.50987 35.8498 5.33601 35.308 5.16197 34.6886C4.81406 33.5274 4.42292 32.3276 4.33364 31.0878C4.28947 30.6617 4.15903 30.2359 4.02859 29.8102C3.76695 28.6486 3.59159 27.4867 3.5025 26.3244C3.50175 26.0143 3.41472 25.7046 3.41397 25.3946C3.23804 24.0001 3.06211 22.6056 2.97246 21.2108C2.92773 20.5522 2.83995 19.9324 2.79522 19.2738C2.74992 18.3826 2.74766 17.4524 2.74541 16.5223C2.74485 16.2898 2.83037 15.9794 2.78657 15.7083C2.52362 14.0041 2.86458 12.2974 2.86044 10.5922C2.85837 9.73955 2.98581 8.92514 3.02697 8.1111C3.02641 7.87856 3.06908 7.6846 3.06851 7.45207C3.02416 6.94843 3.06626 6.52194 3.19444 6.01757C3.32282 5.59071 3.23561 5.20352 2.93281 4.856Z" fill="#059669"/>
</svg>
