<svg width="53" height="73" viewBox="0 0 53 73" fill="none" xmlns="http://www.w3.org/2000/svg">
<path d="M4.16638 62.1883L4.89147 67.388L3.56341 67.5732L1.95629 56.0483L3.28435 55.8631L3.87447 60.0949L3.98701 60.0792C4.12734 59.6045 4.38178 59.2076 4.75033 58.8885C5.12211 58.5651 5.64752 58.3561 6.32655 58.2614C6.91555 58.1793 7.44787 58.2255 7.92352 58.4001C8.39864 58.571 8.79187 58.8814 9.10321 59.3313C9.41778 59.777 9.62685 60.3713 9.73044 61.1141L10.4963 66.6064L9.16827 66.7916L8.41493 61.3893C8.3192 60.7028 8.06697 60.1968 7.65826 59.8713C7.25277 59.5416 6.73677 59.4204 6.11026 59.5078C5.67507 59.5684 5.29773 59.7148 4.97821 59.9467C4.66246 60.1782 4.42975 60.4841 4.28009 60.8644C4.13418 61.2443 4.09628 61.6856 4.16638 62.1883ZM12.7199 66.2963L11.5146 57.6527L12.8427 57.4675L14.048 66.1111L12.7199 66.2963ZM11.989 56.1179C11.7301 56.154 11.4946 56.097 11.2825 55.9468C11.074 55.7961 10.9526 55.5969 10.918 55.3493C10.8835 55.1017 10.9459 54.877 11.1051 54.675C11.2681 54.4725 11.479 54.3532 11.7379 54.3171C11.9967 54.281 12.2304 54.3383 12.4388 54.489C12.651 54.6392 12.7743 54.8381 12.8088 55.0857C12.8434 55.3333 12.7791 55.5583 12.6161 55.7608C12.4569 55.9628 12.2479 56.0818 11.989 56.1179ZM18.8282 56.6328L18.9851 57.7583L14.5057 58.3829L14.3488 57.2574L18.8282 56.6328ZM15.3655 55.0045L16.6936 54.8193L17.8424 63.0578C17.8948 63.4329 17.9884 63.7067 18.1233 63.8791C18.2615 64.0473 18.4214 64.1512 18.6028 64.1909C18.7875 64.2263 18.9774 64.2305 19.1725 64.2032C19.3188 64.1828 19.4378 64.1586 19.5295 64.1305C19.6207 64.0987 19.6936 64.0732 19.7483 64.0541L20.1848 65.2094C20.0995 65.2558 19.9785 65.3071 19.8219 65.3633C19.6658 65.4233 19.4639 65.4706 19.2163 65.5051C18.8412 65.5574 18.4623 65.528 18.0796 65.417C17.7007 65.3053 17.3701 65.1009 17.0877 64.8038C16.8091 64.506 16.6347 64.1058 16.5646 63.6031L15.3655 55.0045ZM28.6298 55.266L28.7868 56.3914L24.3074 57.0161L24.1504 55.8906L28.6298 55.266ZM25.1672 53.6377L26.4953 53.4525L27.6441 61.691C27.6964 62.0661 27.7901 62.3399 27.925 62.5123C28.0632 62.6804 28.223 62.7844 28.4045 62.8241C28.5892 62.8595 28.7791 62.8636 28.9741 62.8364C29.1205 62.816 29.2395 62.7918 29.3312 62.7637C29.4223 62.7319 29.4953 62.7064 29.55 62.6873L29.9864 63.8426C29.9011 63.8889 29.7801 63.9402 29.6235 63.9965C29.4675 64.0565 29.2656 64.1038 29.018 64.1383C28.6428 64.1906 28.2639 64.1612 27.8813 64.0501C27.5024 63.9385 27.1718 63.7341 26.8894 63.4369C26.6107 63.1392 26.4364 62.739 26.3663 62.2363L25.1672 53.6377ZM32.4155 58.249L33.1406 63.4487L31.8126 63.6339L30.2055 52.109L31.5335 51.9238L32.1236 56.1556L32.2362 56.1399C32.3765 55.6652 32.6309 55.2683 32.9995 54.9492C33.3713 54.6258 33.8967 54.4168 34.5757 54.3221C35.1647 54.24 35.697 54.2862 36.1727 54.4608C36.6478 54.6317 37.041 54.9421 37.3524 55.392C37.6669 55.8377 37.876 56.432 37.9796 57.1748L38.7455 62.6671L37.4174 62.8523L36.6641 57.45C36.5684 56.7635 36.3161 56.2575 35.9074 55.932C35.5019 55.6023 34.9859 55.4811 34.3594 55.5685C33.9242 55.6291 33.5469 55.7755 33.2274 56.0074C32.9116 56.2389 32.6789 56.5448 32.5292 56.9251C32.3833 57.305 32.3454 57.7463 32.4155 58.249ZM40.9691 62.357L39.7638 53.7134L41.0918 53.5282L42.2972 62.1718L40.9691 62.357ZM40.2381 52.1786C39.9793 52.2147 39.7438 52.1577 39.5316 52.0075C39.3232 51.8568 39.2017 51.6577 39.1672 51.4101C39.1327 51.1624 39.195 50.9377 39.3543 50.7357C39.5173 50.5332 39.7282 50.4139 39.987 50.3778C40.2459 50.3417 40.4795 50.399 40.6879 50.5497C40.9001 50.6999 41.0235 50.8988 41.058 51.1464C41.0925 51.394 41.0283 51.619 40.8653 51.8215C40.7061 52.0235 40.497 52.1425 40.2381 52.1786ZM49.7108 54.2997L48.5648 54.8037C48.4621 54.6154 48.3245 54.4376 48.152 54.2704C47.9828 54.099 47.7657 53.9686 47.5008 53.8793C47.236 53.7901 46.9103 53.7724 46.5239 53.8262C45.9949 53.9 45.5711 54.0834 45.2525 54.3764C44.9371 54.6652 44.8053 54.9953 44.8571 55.3667C44.9031 55.6968 45.0595 55.9408 45.3263 56.0987C45.5931 56.2565 45.9905 56.3636 46.5185 56.42L47.8454 56.5563C48.6444 56.6361 49.2603 56.8428 49.6931 57.1763C50.1254 57.5062 50.3836 57.9731 50.4679 58.5771C50.5369 59.0723 50.4561 59.5348 50.2254 59.9648C49.9984 60.3942 49.6474 60.7567 49.1723 61.0524C48.6972 61.3482 48.1239 61.5429 47.4524 61.6365C46.5708 61.7594 45.8144 61.6699 45.1833 61.3678C44.5522 61.0657 44.1085 60.5577 43.8521 59.8438L45.0687 59.3529C45.2536 59.8014 45.5293 60.1186 45.8956 60.3047C46.2657 60.4902 46.7227 60.545 47.2667 60.4691C47.8857 60.3828 48.3588 60.183 48.6861 59.8696C49.0166 59.552 49.156 59.2075 49.1042 58.8361C49.0623 58.5359 48.9222 58.2992 48.6839 58.1259C48.445 57.9489 48.101 57.8401 47.6517 57.7995L46.164 57.6627C45.3462 57.5855 44.7242 57.3759 44.2978 57.0337C43.8747 56.6874 43.6216 56.2159 43.5384 55.6194C43.4704 55.1317 43.5472 54.6812 43.7687 54.2678C43.994 53.8539 44.33 53.5069 44.7766 53.2266C45.227 52.9458 45.7561 52.763 46.3638 52.6783C47.2192 52.559 47.9169 52.6529 48.4569 52.9601C49.0007 53.2667 49.4186 53.7132 49.7108 54.2997Z" fill="#059669"/>
<path d="M19.9328 5.856C19.8033 5.81779 19.6308 5.81852 19.5445 5.81888C18.8977 5.93788 18.3372 6.05651 17.6905 6.1755C17.5179 6.17623 17.3452 6.09945 17.2155 5.98373C17.0424 5.75192 16.9986 5.48081 17.0411 5.20934C17.0405 4.97681 17.1695 4.78249 17.3849 4.66531C17.6865 4.54777 17.988 4.35272 18.3329 4.27376C18.8932 4.07761 19.4966 3.84253 20.0134 3.53031C20.2288 3.41313 20.4442 3.29595 20.6598 3.25629C21.3498 3.17587 21.9097 2.8247 22.5129 2.51211C22.7283 2.39493 22.9437 2.27776 23.1591 2.16058C23.719 1.80942 24.2803 2.00083 24.8413 2.11473C24.9276 2.11437 24.971 2.23046 25.0575 2.3076C25.1007 2.34618 25.1439 2.38475 25.1009 2.42369C25.1443 2.53977 25.2309 2.69443 25.2744 2.81051C25.4492 3.73992 25.8394 4.55214 26.2298 5.44188C26.4032 5.82871 26.4906 6.29342 26.5348 6.71954C26.5359 7.18461 26.2781 7.57325 25.7608 7.73046C25.4159 7.80943 25.114 7.84946 24.7689 7.85091C24.4671 7.89094 24.2079 7.73701 23.9917 7.54414C23.8619 7.35091 23.732 7.15768 23.5591 7.00338C23.3861 6.84909 23.1702 6.73373 22.9973 6.57944C22.8245 6.50265 22.5659 6.58125 22.48 6.73664C22.4373 6.9306 22.3516 7.1635 22.3522 7.39603C22.2678 8.1715 22.1834 8.94698 22.056 9.76139C21.971 10.3043 21.9291 10.8083 21.9304 11.3509C21.89 12.475 21.7631 13.5219 21.7658 14.6071C21.7254 15.7312 21.6849 16.8553 21.8171 17.9786C21.8607 18.1722 21.8182 18.4437 21.8186 18.5987C21.8189 18.7538 21.7763 18.9477 21.8199 19.1413C21.8654 20.11 21.9971 21.0784 22.0857 22.0081C22.1308 22.8218 22.2191 23.6741 22.2642 24.4877C22.3971 25.9212 22.6163 27.3542 22.9217 28.7869C22.9651 28.903 23.0085 29.019 23.0089 29.1741C23.142 30.685 23.5339 32.1948 23.9258 33.7046C24.0566 34.2854 24.2306 34.9048 24.4477 35.4852C24.5778 35.756 24.6648 36.0656 24.6656 36.3757C24.84 37.1501 25.1007 37.9241 25.4475 38.6202C25.9675 39.6257 26.4444 40.5926 26.9645 41.598C27.0079 41.7141 27.0945 41.8688 27.1379 41.9849C27.1815 42.1785 27.1819 42.3335 27.096 42.4889C26.9242 42.7996 26.5797 43.0336 26.235 43.1901C25.9333 43.3076 25.5018 43.2319 25.3717 42.9612C24.9821 42.3815 24.6357 41.8404 24.246 41.2607C23.5098 40.0624 23.0752 38.7465 22.6839 37.4692C22.5099 36.8498 22.336 36.308 22.162 35.6886C21.8141 34.5274 21.4229 33.3276 21.3336 32.0878C21.2895 31.6617 21.159 31.2359 21.0286 30.8102C20.767 29.6486 20.5916 28.4867 20.5025 27.3244C20.5017 27.0143 20.4147 26.7046 20.414 26.3946C20.238 25.0001 20.0621 23.6056 19.9725 22.2108C19.9277 21.5522 19.8399 20.9324 19.7952 20.2738C19.7499 19.3826 19.7477 18.4524 19.7454 17.5223C19.7448 17.2898 19.8304 16.9794 19.7866 16.7083C19.5236 15.0041 19.8646 13.2974 19.8604 11.5922C19.8584 10.7396 19.9858 9.92514 20.027 9.1111C20.0264 8.87856 20.0691 8.6846 20.0685 8.45207C20.0242 7.94843 20.0663 7.52194 20.1944 7.01757C20.3228 6.59071 20.2356 6.20352 19.9328 5.856Z" fill="#059669"/>
</svg>
