<svg width="53" height="43" viewBox="0 0 53 43" fill="none" xmlns="http://www.w3.org/2000/svg">
<path d="M10.0328 14.7163C11.0968 17.5257 12.6101 19.9308 14.244 22.2942C15.5251 24.1565 16.9637 25.9021 18.5831 27.5853C20.4392 29.4982 22.4665 31.1651 24.846 32.5234C26.2376 33.3509 27.7496 34.1367 29.2754 34.7932C30.3004 35.249 31.2884 35.7798 32.3271 36.1062C32.8883 36.2862 33.4726 36.5204 34.094 36.6795C34.8221 36.9263 35.5502 37.1732 36.2783 37.42C37.1501 37.6795 38.0219 37.939 38.8937 38.1985C39.7656 38.458 40.5539 38.684 41.4025 38.8892C41.8801 39.0357 42.3948 39.1071 42.8725 39.2535C43.4939 39.4127 44.1755 39.551 44.7969 39.7101C46.457 40.1956 48.0984 40.3139 49.7999 40.4113C50.1477 40.4158 50.5092 40.2909 50.8105 40.1868C51.3527 39.9995 51.9741 40.1586 52.3407 40.5304C52.4474 40.6181 52.5171 40.7809 52.5033 40.9103C52.4851 41.3526 52.3834 41.7615 52.0916 42.0492C51.897 42.241 51.7395 42.3577 51.415 42.4075C50.8262 42.4863 50.1772 42.5859 49.5791 42.481C48.406 42.3256 47.2329 42.1702 46.0598 42.0147C44.3118 41.8088 42.6146 41.3983 40.9544 40.9128C38.3622 40.1886 35.7467 39.4101 33.1683 38.5566C31.0675 37.8495 29.1381 36.8964 27.1854 35.889C25.5899 35.0696 24.1148 34.2087 22.6536 33.2184C20.362 31.5806 18.3855 29.7093 16.5432 27.667C14.5479 25.4285 12.7935 23.1067 11.2939 20.5723C10.1566 18.7226 9.13972 16.8313 8.42413 14.8359C7.59241 12.5692 6.90443 10.3151 6.57798 7.93611C6.54533 7.69821 6.51269 7.46031 6.41979 7.24323C6.27102 6.73398 6.05761 6.55852 5.40862 6.65811C4.67615 6.72425 3.9669 6.84466 3.23443 6.9108C2.82645 6.92714 2.46493 7.05202 2.0896 7.30626C1.93206 7.42297 1.64459 7.39769 1.51466 7.25569C1.27803 7.02596 1.12488 6.82969 0.948496 6.57914C0.665413 6.24087 0.613927 5.63572 1.08654 5.28559C1.71669 4.81874 2.07318 4.19725 2.42967 3.57576C2.93427 2.65392 3.52236 1.76556 4.05019 0.897996C4.19831 0.597657 4.45313 0.385045 4.76821 0.15162C4.986 0.0140944 5.37075 -0.0565118 5.64441 0.098131C6.00155 0.286231 6.35869 0.474324 6.42398 0.950119C6.5263 1.35083 6.78616 1.63483 7.1433 1.82293C8.15448 2.40804 9.21648 2.78872 10.399 3.12777C10.7097 3.20733 11.1177 3.19098 11.4886 3.24972C12.2073 3.31294 12.7176 3.69732 13.1306 4.17759C13.1538 4.23186 13.1632 4.41548 13.103 4.43629C12.8714 4.70318 12.6166 4.91579 12.385 5.18267C12.1534 5.44955 11.8151 5.6287 11.4673 5.62423C10.5911 5.67772 9.72435 5.91485 8.89459 6.07688C8.63035 6.10587 8.38934 6.18912 8.12509 6.21811C7.74034 6.28872 7.569 6.53478 7.61107 6.95631C7.9281 9.15166 8.50938 11.318 9.35489 13.4554C9.7541 14.065 9.91668 14.4449 10.0328 14.7163Z" fill="#F87171"/>
</svg>
