<svg width="220" height="76" viewBox="0 0 220 76" fill="none" xmlns="http://www.w3.org/2000/svg">
<path d="M70.3739 50.8147L69.145 51.053C69.0864 50.8466 68.9914 50.6428 68.8602 50.4417C68.733 50.237 68.5501 50.0619 68.3116 49.9163C68.073 49.7707 67.7593 49.6815 67.3705 49.6486C66.8383 49.6037 66.3845 49.6889 66.0089 49.9042C65.6375 50.1161 65.436 50.4089 65.4044 50.7826C65.3764 51.1148 65.475 51.3873 65.7003 51.6002C65.9256 51.8131 66.2895 52.0054 66.792 52.1771L68.056 52.6032C68.8176 52.8576 69.3726 53.1953 69.721 53.6163C70.0697 54.0335 70.2183 54.5459 70.167 55.1536C70.1249 55.6519 69.9438 56.0851 69.6238 56.4534C69.3076 56.822 68.8851 57.0981 68.3564 57.2815C67.8277 57.4649 67.2256 57.5281 66.55 57.471C65.663 57.396 64.9451 57.1415 64.3964 56.7074C63.8476 56.2733 63.5271 55.6798 63.4349 54.927L64.7299 54.7171C64.8111 55.1953 65.0098 55.5656 65.326 55.828C65.6459 56.0907 66.0795 56.2452 66.6268 56.2914C67.2496 56.3441 67.7552 56.2537 68.1436 56.0204C68.5362 55.7837 68.7482 55.4785 68.7798 55.1048C68.8053 54.8029 68.721 54.5411 68.5269 54.3194C68.333 54.0939 68.0215 53.9118 67.5923 53.7729L66.1716 53.3107C65.3911 53.0547 64.8308 52.7128 64.4906 52.2849C64.1545 51.8535 64.0118 51.3378 64.0625 50.7377C64.104 50.247 64.2784 49.8246 64.5859 49.4704C64.8971 49.1165 65.3014 48.8523 65.799 48.6777C66.3003 48.5033 66.8566 48.442 67.4681 48.4937C68.3287 48.5664 68.9884 48.8122 69.4471 49.2311C69.9097 49.6503 70.2186 50.1782 70.3739 50.8147ZM73.5444 52.6108L73.1024 57.8421L71.7663 57.7292L72.746 46.1342L74.0821 46.2471L73.7224 50.5046L73.8356 50.5142C74.0774 50.0823 74.4132 49.7514 74.8432 49.5216C75.2773 49.2884 75.8359 49.2007 76.5191 49.2584C77.1116 49.3085 77.6206 49.4712 78.0459 49.7466C78.4715 50.0183 78.7864 50.4079 78.9906 50.9155C79.1989 51.4197 79.2715 52.0455 79.2083 52.7928L78.7414 58.3186L77.4053 58.2057L77.8645 52.7705C77.9229 52.0798 77.7887 51.5305 77.462 51.1228C77.1394 50.7116 76.663 50.4794 76.0326 50.4261C75.5948 50.3891 75.1945 50.4484 74.8316 50.6041C74.4725 50.76 74.1779 51.0069 73.9479 51.3448C73.7217 51.683 73.5872 52.105 73.5444 52.6108ZM80.9786 58.5076L81.7133 49.8113L83.0495 49.9242L82.3147 58.6205L80.9786 58.5076ZM82.5152 48.4193C82.2548 48.3973 82.0377 48.2896 81.8639 48.0963C81.694 47.9033 81.6195 47.6822 81.6406 47.4331C81.6616 47.184 81.7721 46.9785 81.9721 46.8168C82.1758 46.6553 82.4078 46.5856 82.6683 46.6076C82.9287 46.6296 83.1439 46.7371 83.3139 46.9301C83.4876 47.1235 83.5639 47.3447 83.5429 47.5938C83.5218 47.8429 83.4095 48.0482 83.2058 48.2097C83.0058 48.3714 82.7756 48.4413 82.5152 48.4193ZM89.0715 50.433L88.9758 51.5653L84.4691 51.1845L84.5648 50.0522L89.0715 50.433ZM86.0543 48.0797L87.3905 48.1926L86.6902 56.4813C86.6583 56.8587 86.6891 57.1464 86.7826 57.3444C86.8802 57.5389 87.0131 57.6756 87.1813 57.7544C87.3536 57.8298 87.5379 57.8758 87.7342 57.8923C87.8814 57.9048 88.0028 57.9074 88.0984 57.9003C88.1944 57.8894 88.2711 57.8807 88.3287 57.8741L88.4991 59.0974C88.4056 59.1237 88.2763 59.147 88.1111 59.1672C87.9456 59.1913 87.7383 59.1928 87.4892 59.1717C87.1118 59.1398 86.7487 59.0274 86.4001 58.8345C86.0552 58.6419 85.7779 58.3695 85.5682 58.0172C85.3623 57.6653 85.2807 57.2365 85.3234 56.7307L86.0543 48.0797ZM93.6767 59.7629C92.8388 59.6921 92.1316 59.4461 91.5552 59.0249C90.9828 58.6002 90.5607 58.0399 90.2888 57.3441C90.0209 56.6448 89.9246 55.8498 89.9999 54.959C90.0752 54.0683 90.3038 53.2969 90.6858 52.6449C91.0719 51.9895 91.5736 51.4959 92.1908 51.1641C92.8122 50.8289 93.5154 50.6944 94.3004 50.7607C94.7534 50.799 95.1943 50.9123 95.6231 51.1006C96.052 51.2889 96.4332 51.5682 96.7669 51.9385C97.1008 52.305 97.3519 52.7748 97.5202 53.3478C97.6885 53.9208 97.7383 54.6131 97.6698 55.4246L97.6219 55.9908L90.9185 55.4244L91.0161 54.2694L96.3607 54.721C96.4022 54.2303 96.341 53.7842 96.1773 53.3826C96.0173 52.9814 95.7675 52.6542 95.4277 52.4012C95.0917 52.1486 94.6822 52.0018 94.199 51.961C93.6668 51.916 93.1952 52.0092 92.7841 52.2406C92.3771 52.4685 92.0521 52.7832 91.8091 53.1846C91.5661 53.586 91.4244 54.0264 91.3839 54.5058L91.3188 55.2758C91.2633 55.9325 91.3295 56.4988 91.5174 56.9746C91.7094 57.447 91.9991 57.8193 92.3867 58.0916C92.7746 58.36 93.2384 58.517 93.7781 58.5626C94.1291 58.5923 94.4503 58.57 94.7417 58.4958C95.0372 58.4181 95.2972 58.288 95.5216 58.1055C95.7465 57.9193 95.9282 57.6799 96.067 57.3875L97.3272 57.859C97.1544 58.2853 96.8935 58.651 96.5446 58.956C96.196 59.2573 95.778 59.4805 95.2906 59.6256C94.8035 59.7669 94.2655 59.8127 93.6767 59.7629ZM110.125 54.1733L108.896 54.4116C108.837 54.2052 108.742 54.0014 108.611 53.8002C108.484 53.5956 108.301 53.4205 108.063 53.2749C107.824 53.1293 107.51 53.0401 107.122 53.0072C106.589 52.9623 106.135 53.0475 105.76 53.2628C105.389 53.4747 105.187 53.7675 105.155 54.1412C105.127 54.4733 105.226 54.7459 105.451 54.9588C105.677 55.1717 106.04 55.364 106.543 55.5357L107.807 55.9618C108.569 56.2162 109.124 56.5539 109.472 56.9749C109.821 57.3921 109.969 57.9045 109.918 58.5122C109.876 59.0104 109.695 59.4437 109.375 59.812C109.059 60.1806 108.636 60.4566 108.107 60.64C107.579 60.8235 106.977 60.8866 106.301 60.8295C105.414 60.7546 104.696 60.5001 104.147 60.066C103.599 59.6319 103.278 59.0384 103.186 58.2855L104.481 58.0756C104.562 58.5539 104.761 58.9242 105.077 59.1866C105.397 59.4493 105.831 59.6038 106.378 59.65C107.001 59.7026 107.506 59.6123 107.895 59.379C108.287 59.1423 108.499 58.8371 108.531 58.4634C108.556 58.1615 108.472 57.8997 108.278 57.678C108.084 57.4525 107.772 57.2703 107.343 57.1314L105.923 56.6693C105.142 56.4133 104.582 56.0713 104.242 55.6434C103.906 55.2121 103.763 54.6964 103.814 54.0962C103.855 53.6055 104.029 53.1831 104.337 52.829C104.648 52.4751 105.052 52.2109 105.55 52.0362C106.051 51.8619 106.608 51.8006 107.219 51.8522C108.08 51.925 108.739 52.1708 109.198 52.5897C109.661 53.0089 109.97 53.5368 110.125 54.1733ZM111.517 61.0878L112.252 52.3915L113.588 52.5044L112.853 61.2007L111.517 61.0878ZM113.054 50.9995C112.793 50.9775 112.576 50.8699 112.403 50.6765C112.233 50.4835 112.158 50.2624 112.179 50.0133C112.2 49.7642 112.311 49.5588 112.511 49.397C112.714 49.2355 112.947 49.1658 113.207 49.1878C113.467 49.2098 113.683 49.3173 113.853 49.5104C114.026 49.7037 114.103 49.9249 114.082 50.174C114.061 50.4232 113.948 50.6284 113.744 50.7899C113.545 50.9517 113.314 51.0215 113.054 50.9995ZM116.872 56.2715L116.43 61.5028L115.093 61.39L115.828 52.6937L117.119 52.8027L117.004 54.1615L117.117 54.1711C117.359 53.7467 117.698 53.4181 118.136 53.1852C118.574 52.9485 119.121 52.8579 119.778 52.9134C120.367 52.9631 120.872 53.1274 121.293 53.4063C121.715 53.6814 122.028 54.0728 122.232 54.5804C122.436 55.0843 122.507 55.7061 122.445 56.4459L121.978 61.9716L120.642 61.8587L121.101 56.4236C121.159 55.7404 121.026 55.1932 120.704 54.782C120.381 54.367 119.911 54.1334 119.292 54.0811C118.865 54.0451 118.476 54.1053 118.125 54.2619C117.777 54.4188 117.492 54.6665 117.269 55.005C117.047 55.3436 116.914 55.7657 116.872 56.2715ZM127.432 65.8993C126.786 65.8447 126.238 65.7148 125.788 65.5095C125.338 65.308 124.969 65.0602 124.682 64.766C124.399 64.476 124.179 64.1723 124.023 63.8551L125.151 63.1977C125.258 63.3664 125.396 63.5605 125.564 63.7799C125.731 64.0032 125.969 64.2038 126.277 64.3819C126.588 64.5641 127.007 64.6773 127.531 64.7217C128.233 64.781 128.827 64.6601 129.312 64.359C129.798 64.0578 130.071 63.5449 130.132 62.8203L130.282 61.0538L130.168 61.0443C130.057 61.1945 129.901 61.379 129.7 61.5977C129.503 61.8129 129.229 61.9969 128.877 62.1497C128.53 62.2991 128.074 62.3498 127.508 62.302C126.805 62.2427 126.189 62.0233 125.659 61.644C125.132 61.265 124.733 60.7447 124.462 60.0831C124.195 59.4219 124.099 58.6384 124.176 57.7325C124.251 56.8418 124.473 56.0794 124.842 55.4453C125.212 54.8075 125.691 54.331 126.28 54.0158C126.87 53.6969 127.531 53.5684 128.263 53.6303C128.829 53.6781 129.27 53.8104 129.587 54.0272C129.907 54.2405 130.146 54.4736 130.303 54.7263C130.464 54.9757 130.588 55.18 130.673 55.3392L130.809 55.3507L130.926 53.9693L132.217 54.0783L131.461 63.0237C131.398 63.7711 131.176 64.3644 130.797 64.8037C130.421 65.2472 129.939 65.5542 129.351 65.725C128.766 65.8999 128.126 65.958 127.432 65.8993ZM127.79 61.117C128.326 61.1623 128.789 61.0779 129.18 60.8638C129.571 60.6497 129.882 60.3206 130.113 59.8764C130.344 59.4321 130.487 58.8892 130.541 58.2476C130.594 57.621 130.547 57.0601 130.399 56.5648C130.25 56.0695 130.003 55.6703 129.656 55.3673C129.309 55.0643 128.864 54.8898 128.32 54.8439C127.754 54.7961 127.27 54.8996 126.868 55.1546C126.47 55.4099 126.157 55.7711 125.927 56.2383C125.701 56.7058 125.564 57.234 125.514 57.8228C125.463 58.4267 125.512 58.9687 125.662 59.4489C125.815 59.9257 126.068 60.312 126.419 60.6077C126.774 60.9001 127.231 61.0698 127.79 61.117ZM133.72 62.9638L134.455 54.2675L135.791 54.3804L135.057 63.0766L133.72 62.9638ZM135.257 52.8755C134.997 52.8535 134.78 52.7458 134.606 52.5525C134.436 52.3594 134.361 52.1384 134.382 51.8893C134.403 51.6402 134.514 51.4347 134.714 51.2729C134.918 51.1115 135.15 51.0418 135.41 51.0638C135.671 51.0858 135.886 51.1933 136.056 51.3863C136.229 51.5797 136.306 51.8009 136.285 52.05C136.264 52.2991 136.151 52.5044 135.948 52.6658C135.748 52.8276 135.517 52.8975 135.257 52.8755ZM139.075 58.1474L138.633 63.3788L137.297 63.2659L138.031 54.5696L139.322 54.6787L139.207 56.0375L139.321 56.047C139.562 55.6227 139.901 55.294 140.339 55.0611C140.777 54.8244 141.325 54.7338 141.981 54.7893C142.57 54.8391 143.075 55.0034 143.496 55.2823C143.918 55.5574 144.231 55.9487 144.435 56.4564C144.639 56.9602 144.71 57.582 144.648 58.3218L144.181 63.8476L142.845 63.7347L143.304 58.2995C143.362 57.6163 143.229 57.0692 142.907 56.658C142.585 56.243 142.114 56.0094 141.495 55.9571C141.068 55.921 140.679 55.9813 140.328 56.1379C139.98 56.2947 139.695 56.5424 139.473 56.881C139.25 57.2195 139.117 57.6417 139.075 58.1474ZM149.635 67.7752C148.989 67.7207 148.442 67.5908 147.991 67.3855C147.541 67.1839 147.172 66.9361 146.885 66.642C146.602 66.3519 146.382 66.0483 146.227 65.731L147.354 65.0736C147.462 65.2424 147.599 65.4364 147.767 65.6559C147.934 65.8791 148.172 66.0798 148.48 66.2578C148.792 66.44 149.21 66.5533 149.734 66.5976C150.436 66.6569 151.03 66.536 151.515 66.2349C152.001 65.9338 152.274 65.4209 152.335 64.6962L152.485 62.9298L152.371 62.9202C152.26 63.0704 152.104 63.2549 151.903 63.4736C151.706 63.6889 151.432 63.8729 151.081 64.0257C150.733 64.175 150.277 64.2258 149.711 64.1779C149.009 64.1186 148.392 63.8993 147.862 63.5199C147.335 63.1409 146.936 62.6206 146.665 61.9591C146.398 61.2979 146.302 60.5143 146.379 59.6085C146.454 58.7177 146.676 57.9553 147.046 57.3213C147.415 56.6834 147.894 56.2069 148.483 55.8918C149.073 55.5729 149.734 55.4443 150.466 55.5062C151.032 55.554 151.474 55.6863 151.79 55.9031C152.11 56.1165 152.349 56.3495 152.506 56.6023C152.668 56.8516 152.791 57.0559 152.876 57.2152L153.012 57.2267L153.129 55.8452L154.42 55.9543L153.664 64.8997C153.601 65.647 153.38 66.2404 153 66.6797C152.625 67.1231 152.142 67.4302 151.554 67.601C150.969 67.7758 150.329 67.8339 149.635 67.7752ZM149.993 62.993C150.529 63.0383 150.993 62.9539 151.383 62.7398C151.774 62.5257 152.085 62.1965 152.316 61.7523C152.548 61.3081 152.69 60.7652 152.745 60.1235C152.798 59.497 152.75 58.936 152.602 58.4407C152.453 57.9454 152.206 57.5463 151.859 57.2433C151.512 56.9403 151.067 56.7658 150.523 56.7199C149.957 56.672 149.473 56.7756 149.072 57.0306C148.674 57.2858 148.36 57.6471 148.13 58.1143C147.905 58.5818 147.767 59.1099 147.717 59.6987C147.666 60.3026 147.715 60.8447 147.865 61.3249C148.018 61.8016 148.271 62.1879 148.622 62.4837C148.978 62.776 149.435 62.9458 149.993 62.993ZM162.171 65.3675L160.256 56.4474L161.66 56.566L162.977 63.3829L163.067 63.3906L165.487 56.8894L166.914 57.0099L168.188 63.8003L168.278 63.808L170.718 57.3314L172.122 57.45L168.738 65.9224L167.425 65.8114L166.087 58.97L165.951 58.9585L163.484 65.4785L162.171 65.3675ZM175.489 66.698C174.938 66.6515 174.446 66.5054 174.015 66.2599C173.583 66.0106 173.252 65.6766 173.022 65.258C172.791 64.8355 172.7 64.3413 172.748 63.7751C172.79 63.2769 172.922 62.8813 173.145 62.5884C173.367 62.2917 173.65 62.0685 173.994 61.9189C174.337 61.7692 174.711 61.6677 175.114 61.6144C175.522 61.5576 175.93 61.5199 176.338 61.5011C176.873 61.4778 177.305 61.4631 177.636 61.4569C177.972 61.4472 178.219 61.4053 178.377 61.3312C178.539 61.2575 178.629 61.1131 178.647 60.8979L178.651 60.8526C178.698 60.294 178.582 59.847 178.303 59.5117C178.027 59.1767 177.581 58.9832 176.966 58.9312C176.328 58.8773 175.816 58.9747 175.43 59.2234C175.044 59.4721 174.764 59.7488 174.59 60.0534L173.36 59.4933C173.632 58.984 173.968 58.5981 174.371 58.3356C174.777 58.0696 175.21 57.8971 175.669 57.818C176.132 57.7355 176.582 57.7128 177.02 57.7498C177.3 57.7734 177.618 57.8344 177.974 57.933C178.335 58.0281 178.676 58.1919 178.999 58.4244C179.325 58.6573 179.584 58.989 179.776 59.4195C179.968 59.8501 180.034 60.4107 179.976 61.1014L179.492 66.831L178.156 66.7181L178.255 65.5405L178.187 65.5347C178.081 65.7158 177.913 65.905 177.683 66.1023C177.454 66.2995 177.157 66.4589 176.793 66.5802C176.429 66.7015 175.995 66.7408 175.489 66.698ZM175.794 65.515C176.322 65.5596 176.777 65.4935 177.156 65.3165C177.54 65.1398 177.838 64.8951 178.051 64.5824C178.267 64.27 178.391 63.9326 178.422 63.5702L178.525 62.3473C178.463 62.4105 178.333 62.4622 178.135 62.5026C177.942 62.5395 177.719 62.5682 177.467 62.5886C177.218 62.6056 176.976 62.6194 176.739 62.6298C176.507 62.6368 176.318 62.6436 176.173 62.6504C175.822 62.6663 175.491 62.7125 175.18 62.7889C174.874 62.8618 174.62 62.9905 174.418 63.1749C174.22 63.3559 174.107 63.6162 174.078 63.9559C174.039 64.4202 174.181 64.7857 174.504 65.0525C174.832 65.3159 175.262 65.47 175.794 65.515ZM181.723 67.0195L182.458 58.3232L183.749 58.4323L183.638 59.7458L183.728 59.7535C183.923 59.3366 184.24 59.0117 184.678 58.7788C185.115 58.5459 185.595 58.4514 186.116 58.4954C186.214 58.5037 186.336 58.516 186.483 58.5322C186.63 58.5484 186.741 58.5635 186.816 58.5774L186.701 59.9362C186.657 59.921 186.554 59.8953 186.394 59.8589C186.238 59.8191 186.071 59.7917 185.893 59.7767C185.471 59.741 185.086 59.7978 184.738 59.9471C184.395 60.093 184.115 60.3126 183.896 60.6058C183.681 60.8956 183.558 61.2368 183.524 61.6293L183.059 67.1324L181.723 67.0195ZM189.226 62.3847L188.784 67.6161L187.448 67.5032L188.183 58.8069L189.474 58.916L189.359 60.2748L189.472 60.2844C189.713 59.86 190.053 59.5313 190.49 59.2984C190.929 59.0617 191.476 58.9711 192.133 59.0266C192.722 59.0764 193.227 59.2407 193.648 59.5196C194.069 59.7947 194.382 60.186 194.586 60.6937C194.791 61.1975 194.862 61.8193 194.799 62.5591L194.333 68.0849L192.996 67.972L193.456 62.5368C193.513 61.8537 193.381 61.3065 193.058 60.8953C192.736 60.4803 192.265 60.2467 191.646 60.1944C191.22 60.1583 190.831 60.2186 190.479 60.3752C190.132 60.532 189.846 60.7798 189.624 61.1183C189.401 61.4568 189.269 61.879 189.226 62.3847ZM196.567 68.2737L197.302 59.5774L198.638 59.6903L197.903 68.3866L196.567 68.2737ZM198.103 58.1854C197.843 58.1634 197.626 58.0557 197.452 57.8624C197.282 57.6694 197.208 57.4483 197.229 57.1992C197.25 56.9501 197.36 56.7446 197.56 56.5829C197.764 56.4214 197.996 56.3517 198.257 56.3737C198.517 56.3957 198.732 56.5032 198.902 56.6962C199.076 56.8896 199.152 57.1108 199.131 57.3599C199.11 57.609 198.998 57.8143 198.794 57.9758C198.594 58.1375 198.364 58.2074 198.103 58.1854ZM201.921 63.4574L201.479 68.6887L200.143 68.5758L200.878 59.8795L202.169 59.9886L202.054 61.3474L202.167 61.357C202.408 60.9326 202.748 60.6039 203.185 60.371C203.624 60.1343 204.171 60.0437 204.828 60.0992C205.417 60.149 205.922 60.3133 206.343 60.5922C206.764 60.8673 207.077 61.2586 207.281 61.7663C207.486 62.2701 207.557 62.8919 207.494 63.6317L207.028 69.1575L205.691 69.0446L206.151 63.6094C206.208 62.9263 206.076 62.3791 205.753 61.9679C205.431 61.5529 204.96 61.3193 204.341 61.267C203.915 61.2309 203.526 61.2912 203.174 61.4478C202.827 61.6047 202.541 61.8524 202.319 62.1909C202.096 62.5294 201.964 62.9516 201.921 63.4574ZM212.481 73.0851C211.836 73.0306 211.288 72.9007 210.838 72.6954C210.387 72.4939 210.019 72.246 209.732 71.9519C209.448 71.6619 209.229 71.3582 209.073 71.0409L210.201 70.3835C210.308 70.5523 210.446 70.7464 210.613 70.9658C210.781 71.189 211.018 71.3897 211.327 71.5678C211.638 71.7499 212.056 71.8632 212.581 71.9075C213.283 71.9668 213.877 71.8459 214.362 71.5448C214.847 71.2437 215.121 70.7308 215.182 70.0061L215.331 68.2397L215.218 68.2301C215.106 68.3804 214.95 68.5648 214.749 68.7835C214.552 68.9988 214.278 69.1828 213.927 69.3356C213.58 69.4849 213.123 69.5357 212.557 69.4878C211.855 69.4285 211.239 69.2092 210.708 68.8298C210.181 68.4508 209.783 67.9305 209.512 67.269C209.244 66.6078 209.149 65.8243 209.225 64.9184C209.301 64.0276 209.523 63.2652 209.892 62.6312C210.261 61.9933 210.741 61.5168 211.33 61.2017C211.919 60.8828 212.58 60.7542 213.313 60.8161C213.879 60.864 214.32 60.9963 214.636 61.213C214.956 61.4264 215.195 61.6594 215.353 61.9122C215.514 62.1615 215.637 62.3658 215.723 62.5251L215.859 62.5366L215.975 61.1551L217.266 61.2642L216.51 70.2096C216.447 70.9569 216.226 71.5503 215.847 71.9896C215.471 72.433 214.989 72.7401 214.4 72.9109C213.816 73.0857 213.176 73.1438 212.481 73.0851ZM212.84 68.3029C213.376 68.3482 213.839 68.2638 214.23 68.0497C214.62 67.8356 214.931 67.5064 215.163 67.0622C215.394 66.618 215.537 66.0751 215.591 65.4334C215.644 64.8069 215.596 64.2459 215.448 63.7506C215.3 63.2553 215.052 62.8562 214.705 62.5532C214.358 62.2502 213.913 62.0757 213.37 62.0298C212.804 61.9819 212.32 62.0855 211.918 62.3405C211.52 62.5958 211.206 62.957 210.977 63.4242C210.751 63.8917 210.613 64.4198 210.564 65.0086C210.512 65.6126 210.562 66.1546 210.711 66.6348C210.865 67.1116 211.117 67.4978 211.469 67.7936C211.824 68.0859 212.281 68.2557 212.84 68.3029Z" fill="#F87171"/>
<path d="M11.0328 23.7163C12.0968 26.5257 13.6101 28.9308 15.244 31.2942C16.5251 33.1565 17.9637 34.9021 19.5831 36.5853C21.4392 38.4982 23.4665 40.1651 25.846 41.5234C27.2376 42.3509 28.7496 43.1367 30.2754 43.7932C31.3004 44.249 32.2884 44.7798 33.3271 45.1062C33.8883 45.2862 34.4726 45.5204 35.094 45.6795C35.8221 45.9263 36.5502 46.1732 37.2783 46.42C38.1501 46.6795 39.0219 46.939 39.8937 47.1985C40.7656 47.458 41.5539 47.684 42.4025 47.8892C42.8801 48.0357 43.3948 48.1071 43.8725 48.2535C44.4939 48.4127 45.1755 48.551 45.7969 48.7101C47.457 49.1956 49.0984 49.3139 50.7999 49.4113C51.1477 49.4158 51.5092 49.2909 51.8105 49.1868C52.3527 48.9995 52.9741 49.1586 53.3407 49.5304C53.4474 49.6181 53.5171 49.7809 53.5033 49.9103C53.4851 50.3526 53.3834 50.7615 53.0916 51.0492C52.897 51.241 52.7395 51.3577 52.415 51.4075C51.8262 51.4863 51.1772 51.5859 50.5791 51.481C49.406 51.3256 48.2329 51.1702 47.0598 51.0147C45.3118 50.8088 43.6146 50.3983 41.9544 49.9128C39.3622 49.1886 36.7467 48.4101 34.1683 47.5566C32.0675 46.8495 30.1381 45.8964 28.1854 44.889C26.5899 44.0696 25.1148 43.2087 23.6536 42.2184C21.362 40.5806 19.3855 38.7093 17.5432 36.667C15.5479 34.4285 13.7935 32.1067 12.2939 29.5723C11.1566 27.7226 10.1397 25.8313 9.42413 23.8359C8.59241 21.5692 7.90443 19.3151 7.57798 16.9361C7.54533 16.6982 7.51269 16.4603 7.41979 16.2432C7.27102 15.734 7.05761 15.5585 6.40862 15.6581C5.67615 15.7243 4.9669 15.8447 4.23443 15.9108C3.82645 15.9271 3.46493 16.052 3.0896 16.3063C2.93206 16.423 2.64459 16.3977 2.51466 16.2557C2.27803 16.026 2.12487 15.8297 1.9485 15.5791C1.66541 15.2409 1.61393 14.6357 2.08654 14.2856C2.71669 13.8187 3.07318 13.1972 3.42967 12.5758C3.93427 11.6539 4.52236 10.7656 5.05019 9.898C5.19831 9.59766 5.45313 9.38504 5.7682 9.15162C5.986 9.0141 6.37075 8.94349 6.64441 9.09813C7.00155 9.28623 7.35869 9.47432 7.42398 9.95012C7.5263 10.3508 7.78616 10.6348 8.1433 10.8229C9.15447 11.408 10.2165 11.7887 11.399 12.1278C11.7097 12.2073 12.1177 12.191 12.4886 12.2497C13.2073 12.3129 13.7176 12.6973 14.1306 13.1776C14.1538 13.2319 14.1632 13.4155 14.103 13.4363C13.8714 13.7032 13.6166 13.9158 13.385 14.1827C13.1534 14.4495 12.8151 14.6287 12.4673 14.6242C11.5911 14.6777 10.7243 14.9148 9.89459 15.0769C9.63035 15.1059 9.38934 15.1891 9.12509 15.2181C8.74034 15.2887 8.569 15.5348 8.61107 15.9563C8.9281 18.1517 9.50938 20.318 10.3549 22.4554C10.7541 23.065 10.9167 23.4449 11.0328 23.7163Z" fill="#F87171"/>
</svg>
